<svg width="40" height="40" viewBox="0 0 40 40" fill="none" xmlns="http://www.w3.org/2000/svg">
<rect x="0.489746" width="39.398" height="39.398" rx="19.699" fill="white"/>
<rect x="0.989746" y="0.5" width="38.398" height="38.398" rx="19.199" stroke="#110724" stroke-opacity="0.2"/>
<path d="M18.9731 19.7103C18.7381 19.7296 18.519 19.8366 18.3593 20.0101C18.1995 20.1835 18.1108 20.4107 18.1108 20.6464C18.1108 20.8822 18.1995 21.1094 18.3593 21.2828C18.519 21.4562 18.7381 21.5632 18.9731 21.5826C19.0914 21.5782 19.2076 21.5505 19.3151 21.501C19.4226 21.4515 19.5192 21.3813 19.5994 21.2942C19.6795 21.2072 19.7417 21.1051 19.7822 20.9939C19.8227 20.8828 19.8408 20.7647 19.8355 20.6464C19.8413 20.5281 19.8235 20.4098 19.7831 20.2985C19.7427 20.1871 19.6806 20.0849 19.6004 19.9978C19.5201 19.9106 19.4233 19.8404 19.3156 19.791C19.2079 19.7417 19.0915 19.7142 18.9731 19.7103ZM22.0514 19.7103C21.863 19.6948 21.6743 19.7366 21.5099 19.83C21.3456 19.9235 21.2133 20.0644 21.1304 20.2343C21.0474 20.4042 21.0177 20.5952 21.045 20.7823C21.0724 20.9693 21.1555 21.1438 21.2836 21.2828C21.4117 21.4219 21.5788 21.5191 21.763 21.5616C21.9472 21.6042 22.1399 21.5902 22.316 21.5214C22.4921 21.4527 22.6434 21.3324 22.7501 21.1763C22.8567 21.0202 22.9137 20.8355 22.9137 20.6464C22.9191 20.5284 22.9011 20.4105 22.8607 20.2994C22.8203 20.1884 22.7583 20.0864 22.6784 19.9994C22.5984 19.9124 22.5021 19.8421 22.3948 19.7924C22.2876 19.7428 22.1716 19.7149 22.0535 19.7103H22.0514Z" fill="#996DE4"/>
<path d="M26.1525 12.6349H14.8515C14.6237 12.6354 14.3983 12.6809 14.1881 12.7686C13.9779 12.8564 13.787 12.9847 13.6265 13.1462C13.4659 13.3078 13.3387 13.4994 13.2523 13.7101C13.1658 13.9209 13.1217 14.1466 13.1226 14.3743V25.7745C13.1217 26.0023 13.1658 26.228 13.2523 26.4387C13.3387 26.6494 13.4659 26.841 13.6265 27.0026C13.787 27.1641 13.9779 27.2925 14.1881 27.3802C14.3983 27.4679 14.6237 27.5134 14.8515 27.5139H24.4152L23.9682 25.9537L25.0477 26.9552L26.0682 27.8998L27.8814 29.5022V14.3743C27.8823 14.1466 27.8382 13.9209 27.7517 13.7101C27.6653 13.4994 27.5381 13.3078 27.3776 13.1462C27.217 12.9847 27.0261 12.8564 26.8159 12.7686C26.6058 12.6809 26.3803 12.6354 26.1525 12.6349V12.6349ZM22.8972 23.6513C22.8972 23.6513 22.5935 23.2887 22.3405 22.9661C22.9523 22.8232 23.4938 22.4684 23.8691 21.9646C23.5657 22.1666 23.2403 22.3335 22.8993 22.4622C22.5069 22.6297 22.0966 22.7513 21.6764 22.8248C20.9541 22.9578 20.2133 22.955 19.4921 22.8164C19.0686 22.7336 18.6537 22.6122 18.2523 22.4538C17.9134 22.3224 17.5897 22.1548 17.2867 21.9541C17.6476 22.4477 18.1696 22.7997 18.7626 22.9492C18.5096 23.2697 18.1975 23.6492 18.1975 23.6492C17.6965 23.6628 17.1999 23.5529 16.7514 23.3294C16.3028 23.1058 15.9161 22.7755 15.6253 22.3673C15.652 20.6577 16.0665 18.9765 16.8376 17.4505C17.5174 16.9166 18.3462 16.6072 19.2096 16.565L19.2939 16.6662C18.4823 16.867 17.725 17.2442 17.0758 17.771C17.0758 17.771 17.2614 17.6698 17.5734 17.5264C18.1803 17.2495 18.8271 17.0701 19.49 16.9951C19.5372 16.9853 19.5852 16.9797 19.6333 16.9782C20.1985 16.9046 20.7704 16.8989 21.3369 16.9613C22.2278 17.0631 23.0902 17.3381 23.8755 17.771C23.2592 17.2693 22.5434 16.9042 21.7755 16.6999L21.8936 16.565C22.7569 16.6072 23.5857 16.9166 24.2655 17.4505C25.0366 18.9765 25.4511 20.6577 25.4779 22.3673C25.1849 22.7754 24.7966 23.1057 24.3468 23.3295C23.897 23.5533 23.3994 23.6638 22.8972 23.6513Z" fill="#996DE4"/>
</svg>
