<svg width="64" height="64" viewBox="0 0 64 64" fill="none" xmlns="http://www.w3.org/2000/svg">
<rect width="64" height="64" rx="16" fill="#996DE4"/>
<path d="M31.5001 12.8395C20.0759 12.8395 10.8146 20.9831 10.8146 31.0355C10.8146 34.875 12.1646 38.4315 14.4726 41.3637V50.1605L20.7073 46.5605C23.8501 48.2516 27.5444 49.2315 31.5001 49.2315C42.9243 49.2315 52.1856 41.0879 52.1856 31.0355C52.1856 20.9903 42.9243 12.8395 31.5001 12.8395Z" fill="#F2EDFC"/>
<path d="M14.4726 51.975C14.1605 51.975 13.8484 51.8952 13.5653 51.7355C13.0065 51.4089 12.6581 50.8137 12.6581 50.1605V41.9734C10.2629 38.7218 9 34.9476 9 31.0355C9 20.0033 19.096 11.025 31.5 11.025C43.904 11.025 54 20.0033 54 31.0355C54 42.0678 43.904 51.046 31.5 51.046C27.7331 51.046 24.046 50.2113 20.7653 48.6291L15.3871 51.7355C15.0968 51.8879 14.7847 51.975 14.4726 51.975ZM20.7073 44.746C21.0048 44.746 21.3024 44.8186 21.571 44.9637C24.5468 46.5678 27.9871 47.417 31.5 47.417C41.9081 47.417 50.371 40.0718 50.371 31.0355C50.371 22.0065 41.9081 14.6541 31.5 14.6541C21.0919 14.6541 12.629 22.0065 12.629 31.0355C12.629 34.3307 13.7613 37.517 15.9024 40.2387C16.1565 40.5581 16.2871 40.95 16.2871 41.3565V47.0105L19.8 44.9855C20.0831 44.8258 20.3952 44.746 20.7073 44.746Z" fill="#F2EDFC"/>
<path d="M40.2242 29.5331H22.7758C21.7742 29.5331 20.9613 28.7202 20.9613 27.7186C20.9613 26.717 21.7742 25.9041 22.7758 25.9041H40.217C41.2186 25.9041 42.0315 26.717 42.0315 27.7186C42.0315 28.7202 41.2258 29.5331 40.2242 29.5331Z" fill="#110724"/>
<path d="M33.7936 37.096H22.7758C21.7742 37.096 20.9613 36.283 20.9613 35.2814C20.9613 34.2798 21.7742 33.4669 22.7758 33.4669H33.7936C34.7952 33.4669 35.6081 34.2798 35.6081 35.2814C35.6081 36.283 34.7952 37.096 33.7936 37.096Z" fill="#110724"/>
</svg>
