<svg width="40" height="40" viewBox="0 0 40 40" fill="none" xmlns="http://www.w3.org/2000/svg">
<rect x="0.489746" y="0.397949" width="39.398" height="39.398" rx="19.699" fill="white"/>
<rect x="0.989746" y="0.897949" width="38.398" height="38.398" rx="19.199" stroke="#110724" stroke-opacity="0.2"/>
<path d="M30.52 14.9159C29.791 15.2196 29.0621 15.4626 28.2117 15.5234C29.0621 15.0374 29.6695 14.2477 29.9733 13.3366C29.1836 13.8225 28.3332 14.1262 27.422 14.3085C26.6931 13.5188 25.6604 13.0328 24.567 13.0328C22.3802 13.0328 20.5579 14.7944 20.5579 17.042C20.5579 17.3457 20.6186 17.6494 20.6794 17.9531C17.3384 17.7709 14.4227 16.1915 12.4181 13.7618C12.0537 14.3692 11.8714 15.0374 11.8714 15.7663C11.8714 17.1635 12.6004 18.3783 13.633 19.1073C12.9648 19.1073 12.3574 18.925 11.8107 18.6213V18.6821C11.8107 20.6259 13.2078 22.2052 15.0301 22.5697C14.6657 22.6305 14.3619 22.6912 13.9975 22.6912C13.7545 22.6912 13.5115 22.6912 13.2685 22.6305C13.7545 24.2098 15.2731 25.364 16.974 25.4247C15.6376 26.5181 13.876 27.1255 11.9929 27.1255C11.6892 27.1255 11.3247 27.1255 11.021 27.0648C12.8433 28.1582 14.9694 28.8264 17.2169 28.8264C24.567 28.8264 28.5761 22.7519 28.5761 17.4672C28.5761 17.2849 28.5761 17.1027 28.5761 16.9812C29.3051 16.3738 29.9733 15.7056 30.52 14.9159Z" fill="#996DE4"/>
</svg>
