<svg width="32" height="32" viewBox="0 0 32 32" fill="none" xmlns="http://www.w3.org/2000/svg">
<rect width="32" height="32" rx="4" fill="#996DE4"/>
<path d="M15.9188 12.0679C13.943 12.0679 12.3059 13.6767 12.3059 15.6808C12.3059 17.6848 13.9148 19.2937 15.9188 19.2937C17.9228 19.2937 19.5317 17.6566 19.5317 15.6808C19.5317 13.705 17.8946 12.0679 15.9188 12.0679ZM15.9188 17.9953C14.6487 17.9953 13.6043 16.9509 13.6043 15.6808C13.6043 14.4106 14.6487 13.3663 15.9188 13.3663C17.189 13.3663 18.2333 14.4106 18.2333 15.6808C18.2333 16.9509 17.189 17.9953 15.9188 17.9953Z" fill="#F2EDFC"/>
<path d="M19.6728 12.8019C20.1249 12.8019 20.4913 12.4354 20.4913 11.9833C20.4913 11.5313 20.1249 11.1648 19.6728 11.1648C19.2207 11.1648 18.8542 11.5313 18.8542 11.9833C18.8542 12.4354 19.2207 12.8019 19.6728 12.8019Z" fill="#F2EDFC"/>
<path d="M21.7898 9.86624C21.0559 9.10415 20.0116 8.70898 18.8261 8.70898H13.0116C10.5559 8.70898 8.91882 10.3461 8.91882 12.8017V18.588C8.91882 19.8017 9.31398 20.8461 10.1043 21.6082C10.8664 22.342 11.8825 22.709 13.0398 22.709H18.7979C20.0116 22.709 21.0277 22.3138 21.7616 21.6082C22.5237 20.8743 22.9188 19.83 22.9188 18.6162V12.8017C22.9188 11.6162 22.5237 10.6001 21.7898 9.86624ZM21.6769 18.6162C21.6769 19.4912 21.3664 20.1969 20.8583 20.6767C20.3503 21.1566 19.6446 21.4106 18.7979 21.4106H13.0398C12.193 21.4106 11.4874 21.1566 10.9793 20.6767C10.4712 20.1687 10.2172 19.463 10.2172 18.588V12.8017C10.2172 11.955 10.4712 11.2493 10.9793 10.7412C11.4591 10.2614 12.193 10.0074 13.0398 10.0074H18.8543C19.7011 10.0074 20.4067 10.2614 20.9148 10.7695C21.3946 11.2775 21.6769 11.9832 21.6769 12.8017V18.6162Z" fill="#F2EDFC"/>
</svg>
