<svg width="32" height="32" viewBox="0 0 32 32" fill="none" xmlns="http://www.w3.org/2000/svg">
<rect width="32" height="32" rx="4" fill="#996DE4"/>
<path d="M15.8785 13.8337L13.5436 23.7571" stroke="#F2EDFC" stroke-width="2" stroke-linecap="round" stroke-linejoin="round"/>
<path d="M11.61 18.8392C11.1035 18.0818 10.7813 17.2163 10.6693 16.312C10.5573 15.4077 10.6585 14.4898 10.9649 13.6316C11.2712 12.7735 11.7743 11.999 12.4337 11.3701C13.0931 10.7413 13.8905 10.2755 14.7622 10.0101C15.6339 9.74475 16.5556 9.68713 17.4536 9.84188C18.3516 9.99662 19.2008 10.3594 19.9334 10.9013C20.666 11.4431 21.2615 12.149 21.6724 12.9623C22.0833 13.7756 22.298 14.6738 22.2995 15.585C22.2995 18.8101 19.9646 20.8385 17.6297 20.8385C15.2948 20.8385 14.5943 19.2989 14.5943 19.2989" stroke="#F2EDFC" stroke-width="2" stroke-linecap="round" stroke-linejoin="round"/>
</svg>
