<svg width="32" height="32" viewBox="0 0 32 32" fill="none" xmlns="http://www.w3.org/2000/svg">
<rect width="32" height="32" rx="4" fill="#996DE4"/>
<path d="M18.7127 13.5705C19.8782 14.4074 21.2771 14.857 22.712 14.856V11.9993C21.6513 11.9993 20.6341 11.578 19.884 10.828C19.134 10.0779 18.7127 9.06069 18.7127 8H15.856V17.1413C15.856 17.4992 15.7599 17.8505 15.5779 18.1585C15.3958 18.4666 15.1344 18.7202 14.8209 18.8928C14.5075 19.0654 14.1534 19.1508 13.7958 19.1399C13.4381 19.1291 13.0898 19.0225 12.7874 18.8312C12.485 18.6399 12.2394 18.371 12.0763 18.0524C11.9133 17.7339 11.8387 17.3774 11.8603 17.0202C11.882 16.663 11.9991 16.3182 12.1994 16.0217C12.3998 15.7252 12.676 15.4878 12.9993 15.3345V12.3636C12.0899 12.5266 11.2458 12.9457 10.5663 13.5716C9.88666 14.1976 9.39974 15.0044 9.16263 15.8974C8.92553 16.7904 8.94809 17.7325 9.22766 18.6131C9.50723 19.4937 10.0322 20.2763 10.741 20.8691C11.4497 21.4618 12.3129 21.84 13.2291 21.9593C14.1453 22.0787 15.0765 21.9342 15.9134 21.5428C16.7504 21.1514 17.4583 20.5294 17.9542 19.7498C18.45 18.9701 18.7131 18.0653 18.7127 17.1413V13.5705Z" stroke="#F2EDFC" stroke-linecap="round" stroke-linejoin="round"/>
</svg>
