<svg width="32" height="32" viewBox="0 0 32 32" fill="none" xmlns="http://www.w3.org/2000/svg">
<rect width="32" height="32" rx="4" fill="#996DE4"/>
<path d="M12.4463 22.5001H12.3763C10.9661 22.4877 9.57629 22.162 8.30752 21.5463C8.07413 21.4367 7.88197 21.2552 7.75916 21.0285C7.63635 20.8018 7.58934 20.5417 7.62502 20.2863C7.66382 20.0292 7.78286 19.791 7.96514 19.6055C8.14742 19.4201 8.38362 19.297 8.64002 19.2538C9.4263 19.1489 10.1827 18.8839 10.8625 18.4751C9.68228 17.5523 8.77368 16.3275 8.23299 14.9303C7.69229 13.5331 7.53966 12.0157 7.79127 10.5388C7.82538 10.3049 7.92599 10.0857 8.08111 9.90731C8.23623 9.72891 8.43934 9.59885 8.66627 9.53258C8.88704 9.46324 9.12332 9.46028 9.34577 9.52406C9.56821 9.58784 9.76702 9.71555 9.91752 9.89133C10.4285 10.5614 11.0707 11.1203 11.8048 11.534C12.5389 11.9477 13.3497 12.2075 14.1875 12.2976C14.2275 11.2667 14.6706 10.2927 15.4213 9.58508C15.7961 9.22613 16.2387 8.94538 16.7231 8.75917C17.2076 8.57297 17.7242 8.48504 18.243 8.50052C18.7617 8.51599 19.2722 8.63456 19.7447 8.8493C20.2172 9.06405 20.6422 9.37068 20.995 9.75133C21.0869 9.83259 21.2011 9.88437 21.3228 9.89998C21.4445 9.91558 21.5681 9.89427 21.6775 9.83883C21.8861 9.74043 22.1185 9.70339 22.3473 9.73203C22.5762 9.76067 22.7922 9.8538 22.9702 10.0006C23.1481 10.1473 23.2807 10.3417 23.3524 10.5609C23.4241 10.7802 23.4319 11.0153 23.375 11.2388C23.1732 12.0702 22.7908 12.8469 22.255 13.5138C22.1369 16.003 21.0395 18.3445 19.2021 20.0279C17.3647 21.7112 14.9362 22.5999 12.4463 22.5001ZM12.4463 20.7501H12.5163C13.5336 20.7851 14.5478 20.6178 15.5 20.2579C16.4521 19.898 17.3234 19.3526 18.0633 18.6535C18.8031 17.9543 19.3968 17.1153 19.81 16.1849C20.2231 15.2546 20.4475 14.2515 20.47 13.2338C20.4845 12.9549 20.5995 12.6907 20.7938 12.4901C21.0072 12.2199 21.1892 11.9264 21.3363 11.6151C21.0211 11.6157 20.7093 11.5497 20.4213 11.4216C20.1333 11.2934 19.8756 11.1059 19.665 10.8713C19.4625 10.6706 19.222 10.5122 18.9576 10.4055C18.6932 10.2989 18.4101 10.246 18.125 10.2501C17.8371 10.2426 17.5505 10.2921 17.2817 10.3957C17.0129 10.4994 16.7672 10.655 16.5588 10.8538C16.2775 11.1207 16.0713 11.4568 15.9607 11.8284C15.8502 12.2 15.8392 12.5941 15.9288 12.9713L16.1563 13.9688L15.1325 14.0388C14.0835 14.1244 13.0284 13.9809 12.0403 13.6183C11.0522 13.2557 10.1547 12.6826 9.41002 11.9388C9.37808 13.0907 9.66622 14.2288 10.2424 15.2267C10.8186 16.2246 11.6602 17.0431 12.6738 17.5913L13.505 18.0638L12.9538 18.8513C12.3576 19.6332 11.5408 20.2183 10.6088 20.5313C11.2067 20.6812 11.8211 20.7547 12.4375 20.7501H12.4463Z" fill="#F2EDFC"/>
</svg>
