<svg width="32" height="32" viewBox="0 0 32 32" fill="none" xmlns="http://www.w3.org/2000/svg">
<rect width="32" height="32" rx="4" fill="#996DE4"/>
<path fill-rule="evenodd" clip-rule="evenodd" d="M18.1587 16.8895C17.9849 16.8026 17.1327 16.3838 16.974 16.3254C16.8153 16.2677 16.6998 16.2391 16.5837 16.4129C16.4682 16.5856 16.1363 16.9764 16.0354 17.0919C15.9339 17.208 15.833 17.222 15.6597 17.1357C15.4865 17.0482 14.9277 16.8656 14.2656 16.2753C13.7505 15.8156 13.4022 15.248 13.3013 15.0742C13.2004 14.9009 13.2902 14.807 13.3772 14.7207C13.4553 14.6431 13.5504 14.5183 13.6373 14.4173C13.7242 14.3158 13.7528 14.2435 13.8106 14.1274C13.8689 14.0119 13.8397 13.911 13.796 13.8241C13.7528 13.7372 13.4063 12.8838 13.2617 12.5367C13.1211 12.1989 12.9782 12.245 12.872 12.2392C12.7705 12.2345 12.655 12.2334 12.5395 12.2334C12.424 12.2334 12.2362 12.2765 12.0775 12.4504C11.9182 12.6236 11.4708 13.043 11.4708 13.8964C11.4708 14.7493 12.0915 15.5735 12.1784 15.6896C12.2653 15.8051 13.4005 17.5563 15.1394 18.307C15.5536 18.4855 15.8762 18.5923 16.1276 18.6716C16.5429 18.804 16.9209 18.7853 17.2196 18.7404C17.5521 18.6908 18.2451 18.321 18.3897 17.9162C18.5338 17.5113 18.5338 17.1643 18.4906 17.0919C18.4475 17.0196 18.332 16.9764 18.1581 16.8895H18.1587ZM14.9959 21.2079H14.9936C13.9607 21.2081 12.9469 20.9305 12.0582 20.4041L11.8482 20.2793L9.66541 20.8521L10.2482 18.7241L10.1111 18.5059C9.53366 17.5868 9.22809 16.523 9.22966 15.4376C9.23083 12.2584 11.8173 9.67194 14.9982 9.67194C16.5382 9.67194 17.9861 10.2728 19.0746 11.3624C19.6115 11.8971 20.037 12.5329 20.3266 13.2331C20.6161 13.9333 20.764 14.684 20.7616 15.4417C20.7604 18.6208 18.1739 21.2079 14.9959 21.2079ZM19.9029 10.5347C19.2602 9.88773 18.4955 9.37475 17.653 9.02549C16.8106 8.67623 15.9073 8.49762 14.9953 8.50002C11.1722 8.50002 8.0595 11.6121 8.05833 15.437C8.05656 16.6543 8.37588 17.8505 8.98408 18.9049L8 22.5L11.6773 21.5352C12.6946 22.0894 13.8345 22.3798 14.993 22.3798H14.9959C18.8191 22.3798 21.9317 19.2678 21.9329 15.4423C21.9357 14.5307 21.7578 13.6276 21.4093 12.7852C21.0609 11.9428 20.5489 11.1779 19.9029 10.5347Z" fill="#F2EDFC"/>
</svg>
